<svg xmlns="http://www.w3.org/2000/svg" width="152" height="207" viewBox="0 0 152 207"><defs><style>.cls-1 { fill: #4966a5; fill-rule: evenodd; }</style></defs><path class="cls-1" d="M471 351.005a76.187 76.187 0 0 0-76 76.2 74.5 74.5 0 0 0 6.646 31.106c19 41.691 55.432 85.707 66.148 98.2a4.218 4.218 0 0 0 6.409 0c10.713-12.493 47.142-56.506 66.15-98.2a74.518 74.518 0 0 0 6.647-31.102 76.193 76.193 0 0 0-76-76.204zm0 115.785a39.584 39.584 0 1 1 39.477-39.583 39.577 39.577 0 0 1-39.477 39.583z" transform="translate(-395 -351)"/></svg>