<svg xmlns="http://www.w3.org/2000/svg" width="98.126" height="113.156" viewBox="0 0 98.126 113.156"><defs><style>.cls-1 { fill: #4966a5; fill-rule: evenodd; }</style></defs><path class="cls-1" d="M1082.92 431.7s-.53 6.912-1.06 9.956c0 0-17.92 11.34-47.94 11.34-30.01-.023-47.938-11.34-47.938-11.34-.53-3.044-1.06-9.956-1.06-9.956-.361-5.086.072-15.394 9.251-17.668a77.381 77.381 0 0 0 22.307-9.886l7.83 24.015 1.47 4.523.02-.072 1.28 3.844 4.12-11.363c-10.12-13.73 2.05-13.59 2.72-13.567.68-.023 12.84-.163 2.72 13.567l4.12 11.363 1.28-3.844.02.072 1.47-4.523 7.81-24.015a77.375 77.375 0 0 0 22.31 9.886c9.17 2.274 9.61 12.582 9.27 17.668zm-28.3-43.885c-1.09 6.676-6.58 15.184-15.18 18.2a17.023 17.023 0 0 1-11.11.024c-8.74-3-14.07-11.527-15.13-18.229-1.15-.093-2.67-1.663-4.33-7.286-2.24-7.709.14-8.857 2.17-8.67a18.661 18.661 0 0 1-.87-3.163 21.044 21.044 0 0 1 6.04-20.572 28.953 28.953 0 0 1 5.64-4.546 22.379 22.379 0 0 1 5.49-2.741 19.17 19.17 0 0 1 4.99-.912 21.04 21.04 0 0 1 12.5 2.575 15.431 15.431 0 0 1 6.1 5.508s10.12.679 6.7 20.665a21.469 21.469 0 0 1-.87 3.162c2.02-.186 4.41.962 2.17 8.669-1.64 5.653-3.16 7.223-4.31 7.316z" transform="translate(-984.844 -339.844)"/></svg>