<svg xmlns="http://www.w3.org/2000/svg" width="93.156" height="107.156" viewBox="0 0 93.156 107.156">
  <defs>
    <style>
      .cls-1 {
        fill: #fff;
        fill-rule: evenodd;
      }
    </style>
  </defs>
  <path class="cls-1" d="M492.925,816.832s-0.5,6.544-1.006,9.427c0,0-17.008,10.738-45.493,10.738-28.485-.022-45.494-10.738-45.494-10.738-0.5-2.883-1.006-9.427-1.006-9.427-0.342-4.817.069-14.577,8.779-16.731a73.453,73.453,0,0,0,21.169-9.361l7.43,22.741,1.4,4.282,0.023-.068,1.211,3.64,3.909-10.76c-9.6-13,1.944-12.869,2.584-12.847,0.64-.022,12.185-0.154,2.583,12.847l3.909,10.76,1.212-3.64,0.023,0.068,1.395-4.282,7.406-22.741a73.466,73.466,0,0,0,21.17,9.361C492.834,802.255,493.245,812.015,492.925,816.832Zm-26.861-41.555c-1.029,6.321-6.242,14.378-14.4,17.238a16.182,16.182,0,0,1-10.539.023c-8.3-2.842-13.35-10.915-14.356-17.261-1.1-.089-2.538-1.575-4.116-6.9-2.126-7.3.137-8.387,2.058-8.21a18.265,18.265,0,0,1-.823-3,19.893,19.893,0,0,1,5.738-19.479,27.28,27.28,0,0,1,5.35-4.3,21.159,21.159,0,0,1,5.212-2.6,18.206,18.206,0,0,1,4.732-.864,20.02,20.02,0,0,1,11.865,2.439,14.608,14.608,0,0,1,5.784,5.215s9.6,0.643,6.355,19.567a18.844,18.844,0,0,1-.823,3c1.92-.176,4.184.911,2.058,8.208C468.6,773.7,467.161,775.188,466.064,775.277Z" transform="translate(-399.844 -729.844)"/>
</svg>
