<svg xmlns="http://www.w3.org/2000/svg" width="95.844" height="111" viewBox="0 0 95.844 111">
  <defs>
    <style>
      .cls-1 {
        fill: #fff;
        fill-rule: evenodd;
      }
    </style>
  </defs>
  <path class="cls-1" d="M990.091,822.151a2.786,2.786,0,0,1-3.357,2.024,2.731,2.731,0,0,1-2.064-3.294c1.551-6.381.737-11.981-2.177-14.981-1.94-2-4.705-2.679-8.213-2.034-6.973,1.291-11.415,7.2-16.56,14.047-4.308,5.734-9.191,12.229-16.358,16.578A44.053,44.053,0,0,1,918.742,841c-0.727,0-1.449-.021-2.17-0.063-8.374-.472-15.278-3.749-18.942-8.992-4.626-6.615-1.971-13.5,1.636-18.2l-2.819-3.7a6.327,6.327,0,0,1,1.236-8.874l18.2-13.764a6.579,6.579,0,0,1,9.171,1.23l6.711,8.8c5.346-2.364,11.463-6.377,18.1-12.986,6.7-6.678,10.726-12.813,13.087-18.1l-8.958-6.776a6.328,6.328,0,0,1-1.236-8.876l13.834-18.147a6.585,6.585,0,0,1,9.171-1.229l10.47,7.92a0.392,0.392,0,0,1,.037.034,2.638,2.638,0,0,1,.226.21,2.305,2.305,0,0,1,.188.195c0.039,0.046.072,0.1,0.106,0.145a2.534,2.534,0,0,1,.207.324c0.014,0.026.025,0.054,0.037,0.078a2.673,2.673,0,0,1,.171.442l0,0.008c0.265,0.958,6.109,23.78-25.6,55.36-22.787,22.7-41.1,26.089-49.989,26.089h0a22.852,22.852,0,0,1-5.675-.579,0.065,0.065,0,0,1-.017-0.008,2.594,2.594,0,0,1-.424-0.163,0.722,0.722,0,0,1-.117-0.054,2.792,2.792,0,0,1-.294-0.185,2.04,2.04,0,0,1-.18-0.129c-0.065-.054-0.124-0.115-0.184-0.175a2.625,2.625,0,0,1-.211-0.224c-0.013-.017-0.029-0.028-0.041-0.044l-1.7-2.227c-1.877,2.877-3.175,6.751-.549,10.5,5.322,7.611,21.937,9.655,36.206.991,6.252-3.8,10.6-9.579,14.8-15.173,5.6-7.45,10.888-14.484,20.012-16.174,5.33-.986,10.046.3,13.28,3.635C990.75,806.474,992.083,813.96,990.091,822.151Z" transform="translate(-895.156 -730)"/>
</svg>
