<svg xmlns="http://www.w3.org/2000/svg" width="102.88" height="102.875" viewBox="0 0 102.88 102.875"><defs><style>.cls-1 { fill: #fff; fill-rule: evenodd; opacity: 0.5; }</style></defs><path id="Forma_1" class="cls-1" d="M1526.03 224.4l-23.6-23.6a45.289 45.289 0 0 1-13.63 13.636l23.6 23.6a9.64 9.64 0 1 0 13.63-13.636zm-22.89-47.826a38.57 38.57 0 1 0-38.57 38.573 38.573 38.573 0 0 0 38.57-38.577zm-38.57 28.93a28.93 28.93 0 1 1 28.93-28.93 28.963 28.963 0 0 1-28.93 28.926zm-22.5-28.93h6.43a16.091 16.091 0 0 1 16.07-16.072v-6.432a22.531 22.531 0 0 0-22.5 22.5z" transform="translate(-1426 -138)"/></svg>