<svg xmlns="http://www.w3.org/2000/svg" width="82.03" height="66.031" viewBox="0 0 82.03 66.031"><defs><style>.cls-1 { fill: #4966a5; fill-rule: evenodd; }</style></defs><path class="cls-1" d="M1046.6 589.762a53.185 53.185 0 0 1-20.59 3.922 59.408 59.408 0 0 1-10.25-.917 47.1 47.1 0 0 1-21.206 8.252h-.175a1.832 1.832 0 0 1-1.194-.458 1.89 1.89 0 0 1-.67-1.2 1.151 1.151 0 0 1-.058-.372 2.168 2.168 0 0 1 .029-.372 1.185 1.185 0 0 1 .116-.344l.146-.286.2-.315a.614.614 0 0 1 .233-.285.72.72 0 0 0 .263-.287.492.492 0 0 1 .232-.258q.291-.344 1.341-1.433a22.536 22.536 0 0 0 1.514-1.689q.468-.6 1.311-1.661a14.571 14.571 0 0 0 1.457-2.206q.611-1.147 1.2-2.522a33.821 33.821 0 0 1-11.362-10.142 22.259 22.259 0 0 1-4.137-12.84 22.914 22.914 0 0 1 5.476-14.727 36.956 36.956 0 0 1 14.944-10.687 55.969 55.969 0 0 1 41.18 0 36.963 36.963 0 0 1 14.94 10.687 22.543 22.543 0 0 1 .01 29.453 37 37 0 0 1-14.95 10.687z" transform="translate(-985 -535)"/></svg>