<svg xmlns="http://www.w3.org/2000/svg" width="302" height="258" viewBox="0 0 302 258">
  <defs>
    <style>
      .cls-1 {
        fill-rule: evenodd;
      }
    </style>
  </defs>
  <path id="Forma_1_copy" data-name="Forma 1 copy" class="cls-1" d="M713.975,532.507L652.5,471.943a20.824,20.824,0,0,0-29.14,0l-14.449,14.231a20.136,20.136,0,0,0-4.8,7.508l-67.6-11.922a0.032,0.032,0,0,0-.014,0c-30.394-5.943-60.07,13.522-66.2,43.466l-3.118,15.236a31.181,31.181,0,0,0,24.729,36.663c17.08,3.389,33.774-7.539,37.218-24.363l1.9-9.316,30.314,2.61,79.16,77.984,14.346,14.133a7.27,7.27,0,0,1,0,10.38,7.535,7.535,0,0,1-10.537,0l-38.43-37.859a6.934,6.934,0,0,0-9.694,0,6.684,6.684,0,0,0,0,9.55L634.623,658.1a7.266,7.266,0,0,1,0,10.382,7.543,7.543,0,0,1-10.537,0l-38.43-37.86a6.93,6.93,0,0,0-9.695,0,6.683,6.683,0,0,0,0,9.549l38.431,37.861a7.267,7.267,0,0,1,0,10.378,7.528,7.528,0,0,1-10.537,0l-38.43-37.859a6.932,6.932,0,0,0-9.694,0,6.684,6.684,0,0,0,0,9.55l38.431,37.859a7.274,7.274,0,0,1,0,10.382,7.541,7.541,0,0,1-10.537,0L447.648,574.39,429.69,556.7a6.928,6.928,0,0,0-9.694,0,6.685,6.685,0,0,0,0,9.551l17.958,17.69L457.5,603.19,446.723,613.8a18.205,18.205,0,0,0,0,26.019l3.515,3.463a18.662,18.662,0,0,0,11.339,5.3,18.153,18.153,0,0,0,5.378,11.17l3.515,3.463a18.706,18.706,0,0,0,11.337,5.283,18.14,18.14,0,0,0,5.379,11.183l3.515,3.463a18.662,18.662,0,0,0,11.339,5.3,18.146,18.146,0,0,0,5.378,11.169l3.516,3.463a18.894,18.894,0,0,0,26.411,0l10.772-10.612,25.814,25.431a21.384,21.384,0,0,0,29.924,0,20.535,20.535,0,0,0,6.154-13.868,21.142,21.142,0,0,0,14.079-6.061,20.6,20.6,0,0,0,6.146-13.876,21.2,21.2,0,0,0,14.084-6.054,20.6,20.6,0,0,0,6.147-13.876,21.207,21.207,0,0,0,14.084-6.056,20.647,20.647,0,0,0,0-29.48l-9.5-9.358,34.757-34.238,24.169-23.811A20.11,20.11,0,0,0,713.975,532.507ZM456.417,630.269a4.844,4.844,0,0,1,0-6.918l10.1-9.952,10.537,10.383-10.1,9.95a5.027,5.027,0,0,1-7.023,0ZM476.648,650.2a4.845,4.845,0,0,1,0-6.917l10.1-9.952,10.537,10.382-10.1,9.95a5.023,5.023,0,0,1-7.022,0Zm20.23,19.93a4.841,4.841,0,0,1,0-6.916l10.1-9.95,10.536,10.377-10.1,9.952a5.023,5.023,0,0,1-7.021,0Zm30.77,23.394a5.025,5.025,0,0,1-7.022,0l-3.515-3.464a4.843,4.843,0,0,1,0-6.917l10.1-9.952,10.539,10.382Zm117.706-83.81-76.078-74.946a6.89,6.89,0,0,0-4.25-1.952l-38.9-3.351c-0.2-.016-0.4-0.026-0.6-0.026a6.834,6.834,0,0,0-6.714,5.421l-3.118,15.234a17.981,17.981,0,0,1-32.432,6.268,17.293,17.293,0,0,1-2.635-13.234l3.118-15.234c4.645-22.7,27.16-37.449,50.211-32.869,0.048,0.012.1,0.021,0.146,0.029L600.708,506.8l8.2,8.079,66.356,65.366Zm58.926-58.05L684.957,570.7,618.6,505.331a6.721,6.721,0,0,1,0-9.607L633.05,481.49a6.97,6.97,0,0,1,9.753,0l61.477,60.564A6.725,6.725,0,0,1,704.28,551.664Zm-16.592-8.876a6.753,6.753,0,1,1-6.855,6.753A6.8,6.8,0,0,1,687.688,542.788Z" transform="translate(-418 -466)"/>
</svg>
