<svg xmlns="http://www.w3.org/2000/svg" width="221" height="257" viewBox="0 0 221 257">
  <defs>
    <style>
      .cls-1 {
        fill-rule: evenodd;
      }
    </style>
  </defs>
  <path id="Forma_1" data-name="Forma 1" class="cls-1" d="M1365.9,265.357a6.421,6.421,0,0,1-7.74,4.69,6.334,6.334,0,0,1-4.76-7.629c3.58-14.77,1.7-27.736-5.02-34.685-4.47-4.623-10.85-6.2-18.93-4.7-16.08,2.988-26.33,16.676-38.19,32.521-9.94,13.269-21.19,28.311-37.72,38.385a101.324,101.324,0,0,1-52.16,15.059c-1.67,0-3.34-.043-5-0.138-19.31-1.1-35.23-8.686-43.68-20.821-10.67-15.318-4.55-31.259,3.77-42.145l-6.5-8.558a14.689,14.689,0,0,1,2.85-20.546l41.96-31.87a14.959,14.959,0,0,1,9.14-3.07,15.125,15.125,0,0,1,12,5.921l15.48,20.378c12.33-5.475,26.43-14.763,41.73-30.065,15.45-15.457,24.73-29.667,30.17-41.911l-20.65-15.689a14.671,14.671,0,0,1-2.85-20.546l31.9-42.017a15.127,15.127,0,0,1,12-5.921,14.965,14.965,0,0,1,9.14,3.074l24.15,18.338c0.03,0.022.05,0.056,0.08,0.077a5.749,5.749,0,0,1,.52.485c0.15,0.147.3,0.289,0.44,0.449,0.09,0.11.16,0.226,0.24,0.343a5.921,5.921,0,0,1,.48.746c0.03,0.059.05,0.12,0.08,0.183a6.412,6.412,0,0,1,.4,1.019,0.026,0.026,0,0,0,.01.023c0.61,2.215,14.08,55.055-59.03,128.175-52.54,52.553-94.77,60.4-115.26,60.4h0a52.761,52.761,0,0,1-13.09-1.338c-0.01,0-.03-0.012-0.04-0.016a6.2,6.2,0,0,1-.98-0.379c-0.09-.04-0.18-0.077-0.27-0.124a5.615,5.615,0,0,1-.68-0.432c-0.14-.095-0.28-0.19-0.41-0.3-0.15-.124-0.29-0.266-0.43-0.406a6.932,6.932,0,0,1-.48-0.522c-0.03-.037-0.07-0.066-0.1-0.1l-3.91-5.152c-4.33,6.662-7.32,15.628-1.26,24.323,12.27,17.623,50.58,22.348,83.48,2.288,14.42-8.783,24.44-22.176,34.14-35.128,12.91-17.245,25.1-33.536,46.14-37.448,12.29-2.281,23.17.707,30.62,8.415C1367.42,229.062,1370.49,246.393,1365.9,265.357Z" transform="translate(-1147 -52)"/>
</svg>
