<svg xmlns="http://www.w3.org/2000/svg" width="159" height="205" viewBox="0 0 159 205">
  <defs>
    <style>
      .cls-1 {
        fill-rule: evenodd;
      }
    </style>
  </defs>
  <path id="_1_copy" data-name="1 copy" class="cls-1" d="M509.5,566.1c-31.844,0-57.751,25.212-57.751,56.2s25.907,56.2,57.751,56.2,57.753-25.213,57.753-56.2S541.344,566.1,509.5,566.1Zm0,105.791c-28.1,0-50.957-22.245-50.957-49.589s22.86-49.59,50.957-49.59,50.958,22.247,50.958,49.59S537.6,671.9,509.5,671.9Zm78.951,62.161L561.6,670.965a69.088,69.088,0,0,0,20.149-48.659c0-38.767-32.41-70.308-72.247-70.308s-72.246,31.541-72.246,70.308A69.084,69.084,0,0,0,457.4,670.965l-26.854,63.091a6.634,6.634,0,0,0,1.3,7.223,7.084,7.084,0,0,0,7.274,1.915l16.93-5.133,8.242,15.28A6.976,6.976,0,0,0,470.5,757c0.11,0,.22,0,0.33-0.007A6.947,6.947,0,0,0,477,752.78L502.74,692.3c2.226,0.2,4.48.311,6.759,0.311s4.533-.107,6.759-0.311L542,752.78a6.95,6.95,0,0,0,6.169,4.21c0.11,0.006.221,0.007,0.33,0.007a6.977,6.977,0,0,0,6.2-3.656l8.242-15.28,16.931,5.131a7.075,7.075,0,0,0,7.273-1.915A6.629,6.629,0,0,0,588.45,734.056ZM470.722,750.248a0.229,0.229,0,0,1-.41.02l-9.558-17.72a3.434,3.434,0,0,0-4.019-1.621L437.1,736.88a0.192,0.192,0,0,1-.235-0.06,0.183,0.183,0,0,1-.042-0.235l25.867-60.769a72.654,72.654,0,0,0,12.6,8.4l-15.138,35.567a3.274,3.274,0,0,0,1.838,4.32,3.454,3.454,0,0,0,1.3.253,3.4,3.4,0,0,0,3.14-2.041l15-35.229A73.187,73.187,0,0,0,495.8,691.34ZM444.047,622.306c0-35.123,29.362-63.7,65.452-63.7s65.453,28.573,65.453,63.7S545.59,686,509.5,686,444.047,657.428,444.047,622.306ZM582.131,736.82a0.2,0.2,0,0,1-.235.06l-19.633-5.953a3.434,3.434,0,0,0-4.019,1.621l-9.558,17.72a0.2,0.2,0,0,1-.211.117,0.187,0.187,0,0,1-.2-0.137L523.2,691.34a73.216,73.216,0,0,0,14.37-4.251l15,35.229a3.4,3.4,0,0,0,3.139,2.041,3.454,3.454,0,0,0,1.3-.253,3.275,3.275,0,0,0,1.839-4.32l-15.139-35.567a72.624,72.624,0,0,0,12.6-8.4l25.867,60.769A0.185,0.185,0,0,1,582.131,736.82ZM514.336,591.592l-19.783,8.979,0.714,1.418a12.79,12.79,0,0,1,4.916-1.261,3.936,3.936,0,0,1,2.24.65,3.366,3.366,0,0,1,1.328,1.576,17.358,17.358,0,0,1,.357,4.628v27.685q0,5.04-.516,6.42a4.049,4.049,0,0,1-1.982,2.166,11.135,11.135,0,0,1-4.915.786h-1.428V646.1h28.306v-1.458h-1.229a8.671,8.671,0,0,1-4.44-.866,4.068,4.068,0,0,1-1.824-2.224,26.906,26.906,0,0,1-.435-6.282V591.592h-1.309Z" transform="translate(-430 -552)"/>
</svg>
