<svg xmlns="http://www.w3.org/2000/svg" width="216" height="252" viewBox="0 0 216 252">
  <defs>
    <style>
      .cls-1 {
        fill-rule: evenodd;
      }
    </style>
  </defs>
  <path id="Shape_1_copy" data-name="Shape 1 copy" class="cls-1" d="M559.453,473.551L517.43,516.039l-14.9-15.122a6.911,6.911,0,0,0-9.885,0,7.1,7.1,0,0,0,0,9.994L512.513,531a7,7,0,0,0,4.917,2.092A6.787,6.787,0,0,0,522.346,531l46.941-47.46a7.1,7.1,0,0,0,0-9.993A6.851,6.851,0,0,0,559.453,473.551Zm79.494-19.727V420.283c0-5.076-1.966-11.408-11.23-12.611-1.967-.26-3.934-0.471-5.848-0.733a154.561,154.561,0,0,1-17.13-2.615c-21.427-4.762-41.973-14.444-64.745-30.455-3.054-2.146-5.486-3.871-8.953-3.871s-6,1.779-8.9,3.819c-30.431,21.246-57.964,32.024-86.583,33.8-8.747.576-12.525,4.658-12.525,13.657V443.1c-0.052,20.145-.052,41.024.155,61.536a105.279,105.279,0,0,0,2.692,22.29c3.985,17.633,13.145,33.592,28,48.716,18.89,19.255,42.594,34.169,72.507,45.576a12.56,12.56,0,0,0,4.5.784,14.116,14.116,0,0,0,5.744-1.2c1.76-.784,3.519-1.518,5.279-2.3,7.349-3.192,14.9-6.487,22.2-10.359,24.169-12.926,42.387-28.1,55.739-46.414,11.748-16.118,17.8-32.285,18.579-49.4,0.156-3.4.259-7.012,0.311-11.039v-0.21L639,467.009v-1.1Zm-13.974,11.407v1.308l-0.259,33.226v1.2c-0.051,3.976-.155,7.482-0.258,10.778-0.621,14.181-5.8,27.785-15.837,41.6-12.11,16.587-28.775,30.454-51.029,42.33-6.779,3.612-14.128,6.8-21.167,9.892-1.759.783-3.519,1.518-5.278,2.3h-0.156c-27.843-10.676-49.838-24.437-67.176-42.177-12.938-13.238-20.908-26.947-24.273-41.964a90.552,90.552,0,0,1-2.329-19.257c-0.207-20.459-.155-41.232-0.155-61.377V421.643c31.052-2.092,60.6-13.606,93-36.208,0.259-.211.622-0.421,0.984-0.682,0.311,0.209.673,0.471,0.984,0.682,23.961,16.9,46.784,27.574,69.711,32.7,6.211,1.362,12.473,2.091,18.528,2.825,1.605,0.207,3.156.366,4.709,0.576v43.692Z" transform="translate(-423 -370)"/>
</svg>
