<svg xmlns="http://www.w3.org/2000/svg" width="279.97" height="75.03" viewBox="0 0 279.97 75.03">
  <defs>
    <style>
      .cls-1 {

        fill-rule: evenodd;
      }
    </style>
  </defs>
  <path class="cls-1" d="M1386.43,3311.28a2.473,2.473,0,0,0-2.55-2.29,2.511,2.511,0,0,0-2.56,2.36c0,3.56-.01,19.11-0.01,19.11s-6.61-6.94-16.37-5.27a18.086,18.086,0,0,0-15.07,19.66c1.08,12.18,14.44,20.09,25.58,14.88,7.4-3.47,10.9-9.54,10.96-17.6C1386.44,3337.08,1386.43,3314.75,1386.43,3311.28Zm-18.39,45.15a13.341,13.341,0,1,1,13.27-13.24A13.179,13.179,0,0,1,1368.04,3356.43Zm-22.13-14.16c-0.23-5.3-5.36-17.3-18.04-17.3a18.38,18.38,0,1,0,0,36.76,18.658,18.658,0,0,0,3.91-.41c0.01,0,.02-0.01.03-0.01a18.318,18.318,0,0,0,9.43-5.47,2.338,2.338,0,0,0,.09-3.43,2.424,2.424,0,0,0-3.45-.01c-0.58.49-1.13,1.01-1.73,1.48a13.785,13.785,0,0,1-21.28-6.32c-0.53-1.57-.49-1.63,1.23-1.63q13.155,0,26.32-.01C1345.05,3345.92,1346.03,3344.93,1345.91,3342.27Zm-6.61-1.31c-3.99,0-19.68.01-23.6,0.01-1.11,0-1.39-.3-1.11-1.42a13.364,13.364,0,0,1,25.88-.11C1340.77,3340.6,1340.49,3340.96,1339.3,3340.96Zm122.56,3.4c-0.06-8.06-3.56-14.13-10.96-17.6-11.13-5.21-24.49,2.7-25.58,14.88a18.323,18.323,0,0,0,15.07,19.67,18.111,18.111,0,0,0,14.32-3.59c0.56-.43,2.06-1.69,2.06-1.69s0.01,2.34.01,3.49a2.558,2.558,0,0,0,4.36,1.61,2.521,2.521,0,0,0,.74-1.55C1461.88,3356.12,1461.89,3349.42,1461.86,3344.36Zm-5.1-1.06a13.29,13.29,0,0,1-13.1,13.44,13.341,13.341,0,1,1-.16-26.68A13.171,13.171,0,0,1,1456.76,3343.3Zm-35.85,15.6a2.5,2.5,0,0,1-2.66,2.37,15.615,15.615,0,0,1-11.99-5.21c-3.06-3.24-4.4-7.47-4.43-13.02-0.02-4.03.02-31.51,0.02-31.51a2.535,2.535,0,1,1,5.07.05c0,1.83-.01,2.59-0.01,17.07,0,1.3-.11,1.97,1.14,1.97h10.66a2.267,2.267,0,0,1,2.31,2.25,2.342,2.342,0,0,1-.68,1.66,2.246,2.246,0,0,1-1.48.7h-10.91c-0.72,0-1.02.54-1.02,1.49,0.01,3.21-.01,3.4-0.01,8.07a11.434,11.434,0,0,0,10.05,11.4c0.54,0.05,1.07.11,1.6,0.21C1420.09,3356.67,1420.99,3357.64,1420.91,3358.9Zm-112.3-32.4a2.435,2.435,0,0,1-.21.98l-14.1,32.04a2.246,2.246,0,0,1-1.96,1.01,2.587,2.587,0,0,1-2.48-1.79c-0.1-.22-13.63-31.51-13.63-31.51a2.451,2.451,0,0,1,4.48-1.99l11.72,26.43,0.02,0.03,11.47-26.19A2.451,2.451,0,0,1,1308.61,3326.5Zm59.45,19.93a3.7,3.7,0,1,1,.21-7.4A3.7,3.7,0,0,1,1368.06,3346.43Zm28.03,35.43a2.123,2.123,0,0,1-2.13,2.12h-0.37a2.121,2.121,0,0,1-2.12-2.12V3311.1a2.121,2.121,0,0,1,2.12-2.12h0.37a2.123,2.123,0,0,1,2.13,2.12v70.76Zm6.92-13.17a17.747,17.747,0,0,1,4.99-.02,7.354,7.354,0,0,1,6.41,6.16,7.444,7.444,0,0,1-4.74,8.28,12.366,12.366,0,0,1-6.66.43v-14.85Zm1.08,7.49v6.18c0,0.23-.02.44,0.32,0.46a10.468,10.468,0,0,0,5.51-.93c4.59-2.33,4.36-8.62.8-11.06a9.144,9.144,0,0,0-6.27-1.28c-0.35.03-.36,0.26-0.36,0.52v6.11Zm24.25,7.72c-0.6-.11-1.21-0.15-1.81-0.3a7.742,7.742,0,0,1,.99-15.12,0.612,0.612,0,0,0,.12-0.05h2.02a8.441,8.441,0,0,1,3.76,1.49c0.08,0.06.17,0.12,0.25,0.18,0.46,0.36.43,0.68-.08,0.99-0.21.13-.3-0.03-0.42-0.12a7.276,7.276,0,0,0-3.39-1.56,6.452,6.452,0,0,0-7.56,5.3,6.827,6.827,0,0,0,1.88,6.43,6.474,6.474,0,0,0,5.48,1.79,7.454,7.454,0,0,0,3.13-1.08,0.814,0.814,0,0,0,.45-0.82c-0.03-.73-0.02-1.47,0-2.2a0.372,0.372,0,0,0-.45-0.46c-0.56.02-1.11,0-1.67,0.01a0.445,0.445,0,0,1-.02-0.89h2.77a0.4,0.4,0,0,1,.46.48q-0.015,1.8,0,3.6a0.759,0.759,0,0,1-.32.63,7.6,7.6,0,0,1-4.15,1.64c-0.1.01-.2,0.04-0.3,0.06h-1.14Zm33.44-.32a0.536,0.536,0,0,1-.63-0.46c-0.47-1.13-.97-2.26-1.43-3.4a0.563,0.563,0,0,0-.6-0.38q-3.21.015-6.42,0a0.619,0.619,0,0,0-.65.45c-0.47,1.15-.96,2.29-1.45,3.43a0.938,0.938,0,0,1-1.09.33c-0.19-.14-0.03-0.3.02-0.43,0.44-1.05.89-2.1,1.34-3.15q2.31-5.43,4.63-10.86a0.349,0.349,0,0,1,.05-0.13,0.547,0.547,0,0,1,.39-0.47c0.29-.01.3,0.28,0.38,0.46q2.13,5.04,4.24,10.08c0.55,1.32,1.11,2.64,1.66,3.96C1462.46,3383.57,1462.45,3383.58,1461.78,3383.58Zm-5.84-12.93a0.866,0.866,0,0,0-.09.12c-1.02,2.44-2.04,4.89-3.07,7.33-0.16.38,0.09,0.34,0.31,0.34h5.01c1.03,0,1.03,0,.64-0.96C1457.82,3375.22,1456.89,3372.96,1455.94,3370.65Zm-11.26,5.93c0-2.15-.01-4.31.01-6.46a0.446,0.446,0,0,0-.56-0.54c-0.98.02-1.96,0-2.94,0.01-0.32,0-.49-0.07-0.49-0.44a0.407,0.407,0,0,1,.5-0.48q4.02,0.015,8.04,0a0.407,0.407,0,0,1,.51.47c0,0.4-.2.45-0.52,0.45-0.96-.01-1.91-0.01-2.86,0-0.61,0-.62,0-0.62.6v12.83a0.592,0.592,0,0,1-.92.52,0.451,0.451,0,0,1-.15-0.51v-6.45Zm-6.3-.41v6.76c0,0.63-.2.78-0.83,0.64a0.238,0.238,0,0,1-.23-0.22,2.462,2.462,0,0,1-.02-0.26v-13.87a0.447,0.447,0,0,1,.53-0.55,0.466,0.466,0,0,1,.56.56C1438.37,3371.54,1438.38,3373.86,1438.38,3376.17Zm-21.22-.06v-6.8c0-.6.1-0.68,0.7-0.63a0.34,0.34,0,0,1,.38.37v13.96c0,0.55-.02.54-0.56,0.57-0.42.03-.53-0.15-0.53-0.53C1417.17,3380.74,1417.16,3378.43,1417.16,3376.11Zm82.38-7.59a8.4,8.4,0,0,1,3.76,1.49c0.08,0.06.17,0.12,0.25,0.18,0.46,0.36.43,0.67-.08,0.99-0.2.12-.3-0.03-0.42-0.12a7.345,7.345,0,0,0-3.39-1.57,6.471,6.471,0,0,0-7.56,5.31,6.851,6.851,0,0,0,1.88,6.43,6.525,6.525,0,0,0,5.49,1.79,7.645,7.645,0,0,0,3.13-1.08,0.854,0.854,0,0,0,.45-0.82c-0.03-.73-0.03-1.47-0.01-2.2a0.369,0.369,0,0,0-.45-0.46c-0.55.02-1.11-.01-1.67,0.01a0.451,0.451,0,0,1-.02-0.9c0.93,0.01,1.85.01,2.77,0a0.4,0.4,0,0,1,.46.49q-0.015,1.8,0,3.6a0.747,0.747,0,0,1-.32.63,7.674,7.674,0,0,1-4.14,1.64,1.567,1.567,0,0,0-.3.05h-1.15c-0.6-.1-1.21-0.14-1.81-0.3a7.626,7.626,0,0,1-5.62-6.68,7.714,7.714,0,0,1,6.61-8.44,0.564,0.564,0,0,0,.12-0.04h2.02Zm15.57,15.11c-0.12.01-.23,0.03-0.35,0.03q-3.54,0-7.07.01a0.421,0.421,0,0,1-.51-0.51q0.015-6.93,0-13.87a0.45,0.45,0,0,1,.55-0.53c2.15,0.01,4.31.01,6.46,0,0.32,0,.58.02,0.58,0.45s-0.24.47-.57,0.47c-1.78-.01-3.57-0.01-5.36-0.01-0.57,0-.58.01-0.58,0.6V3374c0.01,0.57.01,0.58,0.6,0.58,1.38,0,2.76.01,4.13,0a0.4,0.4,0,0,1,.49.48,0.373,0.373,0,0,1-.45.43c-1.41-.01-2.82.01-4.22-0.01a0.44,0.44,0,0,0-.55.54c0.01,2.09.01,4.19,0,6.28a0.42,0.42,0,0,0,.52.52c1.92-.02,3.84-0.01,5.76,0,0.19,0,.38.01,0.57,0.02v0.79Zm-50.92-14.76a1.2,1.2,0,0,1,.77-0.09,0.287,0.287,0,0,1,.29.32c0.01,0.16.01,0.32,0.01,0.48v12.65c0,0.58,0,.58.58,0.58,1.68,0,3.37.01,5.05,0a0.381,0.381,0,0,1,.46.46c-0.01.36-.2,0.4-0.48,0.4-1.8-.01-3.61,0-5.41-0.01-0.42,0-.85-0.02-1.27-0.03v-14.76Zm19.28,10.56c-1.03,0-2.05.02-3.08-.01a0.733,0.733,0,0,0-.8.56c-0.44,1.1-.92,2.18-1.39,3.27a0.877,0.877,0,0,1-1.09.39c-0.23-.12-0.06-0.29-0.01-0.41,0.52-1.24,1.05-2.48,1.58-3.72,1.47-3.44,2.93-6.89,4.41-10.33,0.09-.23.1-0.59,0.45-0.58a0.6,0.6,0,0,1,.41.57q2.925,6.93,5.82,13.88c0.07,0.17.38,0.4,0.05,0.59a0.83,0.83,0,0,1-1.02-.29c-0.3-.69-0.59-1.37-0.89-2.06-0.21-.5-0.43-0.99-0.63-1.5a0.491,0.491,0,0,0-.56-0.36C1485.64,3379.44,1484.55,3379.43,1483.47,3379.43Zm0.03-8.75c-0.51,1.22-.98,2.34-1.45,3.46-0.55,1.34-1.11,2.67-1.67,4.01-0.07.18-.19,0.38,0.17,0.38,1.93-.01,3.87-0.01,5.8,0,0.29,0,.32-0.14.22-0.36l-0.42-1.02C1485.28,3375.03,1484.41,3372.91,1483.5,3370.68Zm34.67-1.9c0.21-.27.38-0.08,0.55,0.05q2.49,1.9,4.98,3.83c0.97,0.74,1.93,1.48,2.9,2.21,0.11,0.09.21,0.28,0.36,0.19a0.441,0.441,0,0,0,.06-0.41c0-1.77,0-3.55-.01-5.32,0-.35.04-0.58,0.49-0.58s0.53,0.23.53,0.6q-0.015,6.885-.01,13.75a0.54,0.54,0,0,1-.83.54c-0.25-.1-0.17-0.32-0.17-0.49,0-1.95-.03-3.9.01-5.85a1.435,1.435,0,0,0-.66-1.34c-2.27-1.68-4.5-3.41-6.75-5.12a0.833,0.833,0,0,0-.41-0.25,0.955,0.955,0,0,0-.04.47v11.69c0,0.99,0,.99-1,0.88v-14.85Zm19.7,15.2a8.049,8.049,0,0,1-3.11-.84,7.443,7.443,0,0,1-4.04-6.1,7.613,7.613,0,0,1,2.1-6.27,7.329,7.329,0,0,1,4.4-2.19l0.21-.06h2.02a8.768,8.768,0,0,1,4.01,1.68c0.47,0.37.46,0.37,0.13,0.82-0.2.26-.35,0.22-0.57,0.03a7.48,7.48,0,0,0-3.05-1.48,6.554,6.554,0,0,0-8.06,5.59,6.674,6.674,0,0,0,3.27,7.03,6.757,6.757,0,0,0,6.58.1,5.059,5.059,0,0,0,1.39-.84c0.35-.31.5-0.08,0.73,0.17,0.25,0.29.08,0.42-.13,0.59a7.756,7.756,0,0,1-4.39,1.72,2.108,2.108,0,0,0-.35.05h-1.14Zm18.12-15.02c-0.64.91-1.28,1.82-1.91,2.73-0.89,1.28-1.75,2.57-2.64,3.84a1.407,1.407,0,0,0-.26.86c0.01,2.25.01,4.51,0,6.76,0,0.17.08,0.4-.13,0.47a1.1,1.1,0,0,1-.78,0,0.435,0.435,0,0,1-.11-0.48c-0.01-2.18-.02-4.37,0-6.55a2.027,2.027,0,0,0-.39-1.26c-1.37-2.01-2.72-4.03-4.08-6.04a0.467,0.467,0,0,1-.18-0.42c0.08-.18.28-0.08,0.44-0.1a0.919,0.919,0,0,1,1,.51c1.17,1.77,2.37,3.52,3.55,5.29,0.19,0.29.28,0.28,0.47,0,1.14-1.67,2.32-3.32,3.41-5.02a1.407,1.407,0,0,1,1.61-.77v0.18Z" transform="translate(-1276.03 -3308.97)"/>
</svg>
